# xmcd
#
# Track frame offsets:
#	150
#	22455
#	37800
#	67940
#	94272
#	111535
#	126862
#	161067
#	181030
#	200655
#	220642
#	234100
#
# Disc length: 3323 seconds
#
# Revision: 1
# Processed by: cddbd v1.5.2PL0 Copyright (c) Steve Scherf et al.
# Submitted via: audiograbber 1.83.01
#
DISCID=a30cf90c
DTITLE=Steve Lott - West Texas Refugee
DYEAR=1900
DGENRE=Blues
TTITLE0=Dance Thang
TTITLE1=Pink Satin Sheets
TTITLE2=All The Love
TTITLE3=Cut Down To Size
TTITLE4=Everyone But You
TTITLE5=Echos of Dallas
TTITLE6=As The Years Go Passin' By
TTITLE7=Don't Lose Your Cool
TTITLE8=There Is Something On Your Mind
TTITLE9=My Back Door
TTITLE10=Strollin' With Bones
TTITLE11=West Texas Regugee
EXTD=
EXTT0=
EXTT1=
EXTT2=
EXTT3=
EXTT4=
EXTT5=
EXTT6=
EXTT7=
EXTT8=
EXTT9=
EXTT10=
EXTT11=
PLAYORDER=
